<svg width="18" height="18" viewBox="0 0 18 18" fill="none" xmlns="http://www.w3.org/2000/svg">
<path d="M8.99984 0.666656C7.35166 0.666656 5.7405 1.1554 4.37009 2.07108C2.99968 2.98675 1.93158 4.28824 1.30084 5.81096C0.670115 7.33368 0.505087 9.00923 0.82663 10.6257C1.14817 12.2423 1.94185 13.7271 3.10728 14.8925C4.27272 16.058 5.75758 16.8517 7.37409 17.1732C8.9906 17.4947 10.6662 17.3297 12.1889 16.699C13.7116 16.0683 15.0131 15.0002 15.9288 13.6297C16.8444 12.2593 17.3332 10.6482 17.3332 8.99999C17.3332 7.90564 17.1176 6.82201 16.6988 5.81096C16.28 4.79991 15.6662 3.88125 14.8924 3.10743C14.1186 2.33361 13.1999 1.71978 12.1889 1.30099C11.1778 0.882205 10.0942 0.666656 8.99984 0.666656ZM8.99984 11.5C7.14464 11.4997 5.34298 12.1218 3.88317 13.2667C2.90673 12.1016 2.35989 10.6366 2.33411 9.11674C2.30832 7.59683 2.80515 6.11416 3.74151 4.91666L6.12484 7.29999C6.20759 7.93181 6.49672 8.51861 6.9473 8.96919C7.39789 9.41978 7.98468 9.70891 8.61651 9.79166L10.4498 11.625C9.97105 11.5413 9.48589 11.4995 8.99984 11.5ZM14.2582 13.0833L4.91651 3.74166C6.0805 2.82635 7.51908 2.33018 8.99984 2.33332C10.2476 2.33132 11.4708 2.68009 12.5298 3.33984C13.5889 3.99959 14.4412 4.94375 14.9894 6.06459C15.5377 7.18543 15.7598 8.43781 15.6305 9.67884C15.5012 10.9199 15.0257 12.0996 14.2582 13.0833Z" fill="#6B7280"/>
</svg>
