<svg width="20" height="20" viewBox="0 0 20 20" fill="none" xmlns="http://www.w3.org/2000/svg">
<path d="M17.5002 3.33334H9.16683L8.3335 0.833344H2.50016C1.5835 0.833344 0.833496 1.58334 0.833496 2.50001V15C0.833496 15.9167 1.5835 16.6667 2.50016 16.6667H9.16683L10.0002 19.1667H17.5002C18.4168 19.1667 19.1668 18.4167 19.1668 17.5V5.00001C19.1668 4.08334 18.4168 3.33334 17.5002 3.33334ZM5.8335 13.3333C3.5335 13.3333 1.66683 11.4667 1.66683 9.16668C1.66683 6.86668 3.5335 5.00001 5.8335 5.00001C6.9585 5.00001 7.90016 5.41668 8.62516 6.08334L7.52516 7.14168C7.2085 6.84168 6.6585 6.49168 5.8335 6.49168C4.3835 6.49168 3.2085 7.69168 3.2085 9.16668C3.2085 10.6417 4.3835 11.8417 5.8335 11.8417C7.5085 11.8417 8.20016 10.6417 8.26683 9.83334H5.8335V8.40834H9.7335C9.79183 8.66668 9.8335 8.91668 9.8335 9.25834C9.8335 11.6417 8.24183 13.3333 5.8335 13.3333ZM10.9752 8.81668H14.0585C13.7002 9.85834 13.1335 10.8417 12.3502 11.7083C12.0918 11.4167 11.8502 11.1083 11.6335 10.7917L10.9752 8.81668ZM17.9168 17.0833C17.9168 17.5417 17.5418 17.9167 17.0835 17.9167H11.6668L13.3335 15.8333L12.4668 13.25L15.0502 15.8333L15.8168 15.0667L13.0668 12.3583L13.0835 12.3417C14.0252 11.3 14.6918 10.1 15.0835 8.82501H16.6668V7.74168H12.8918V6.66668H11.8168V7.74168H10.6168L9.55016 4.58334H17.0835C17.5418 4.58334 17.9168 4.95834 17.9168 5.41668V17.0833Z" fill="#6B7280"/>
</svg>
