<svg width="20" height="18" viewBox="0 0 20 18" fill="none" xmlns="http://www.w3.org/2000/svg">
<path d="M8.0689 8.06847C10.2969 8.06847 12.1031 6.26228 12.1031 4.03423C12.1031 1.80619 10.2969 0 8.0689 0C5.84086 0 4.03467 1.80619 4.03467 4.03423C4.03467 6.26228 5.84086 8.06847 8.0689 8.06847Z" fill="#6B7280"/>
<path d="M8.7445 9.09708C8.52262 9.08699 8.30073 9.07691 8.06876 9.07691C5.72152 9.07503 3.41766 9.70938 1.4022 10.9125C0.967581 11.18 0.609891 11.5558 0.364146 12.0031C0.118402 12.4504 -0.00697238 12.9538 0.000299223 13.4641V16.1368H9.33955C8.51143 14.9546 8.06771 13.546 8.06876 12.1026C8.07239 11.0635 8.30301 10.0377 8.7445 9.09708Z" fill="#6B7280"/>
<path d="M18.9108 12.1027C18.9061 11.8897 18.8859 11.6773 18.8502 11.4673L20 10.4487L18.9914 8.70386L17.529 9.19805C17.2052 8.92513 16.8367 8.71017 16.4398 8.56266L16.1372 7.05991H14.1201L13.8175 8.56266C13.4206 8.71017 13.0521 8.92513 12.7283 9.19805L11.2659 8.70386L10.2573 10.4487L11.4071 11.4673C11.3715 11.6773 11.3512 11.8897 11.3466 12.1027C11.3512 12.3157 11.3715 12.528 11.4071 12.7381L10.2573 13.7567L11.2659 15.5015L12.7283 15.0073C13.0521 15.2803 13.4206 15.4952 13.8175 15.6427L14.1201 17.1455H16.1372L16.4398 15.6427C16.8367 15.4952 17.2052 15.2803 17.529 15.0073L18.9914 15.5015L20 13.7567L18.8502 12.7381C18.8859 12.528 18.9061 12.3157 18.9108 12.1027ZM15.1287 14.1198C14.7297 14.1198 14.3397 14.0015 14.008 13.7799C13.6763 13.5582 13.4178 13.2432 13.2651 12.8746C13.1124 12.506 13.0725 12.1005 13.1503 11.7092C13.2281 11.3179 13.4202 10.9585 13.7023 10.6764C13.9844 10.3943 14.3439 10.2022 14.7351 10.1243C15.1264 10.0465 15.532 10.0865 15.9006 10.2391C16.2692 10.3918 16.5842 10.6503 16.8058 10.982C17.0275 11.3138 17.1458 11.7037 17.1458 12.1027C17.1442 12.6372 16.9312 13.1493 16.5532 13.5273C16.1753 13.9052 15.6631 14.1182 15.1287 14.1198V14.1198Z" fill="#6B7280"/>
</svg>
