<svg width="10" height="11" viewBox="0 0 10 11" fill="none" xmlns="http://www.w3.org/2000/svg">
<path d="M8.91075 5.1027C8.90608 4.88971 8.88585 4.67735 8.85024 4.46731L10 3.44866L8.99144 1.70386L7.52903 2.19805C7.20523 1.92513 6.83674 1.71017 6.43979 1.56266L6.13722 0.059906H4.1201L3.81753 1.56266C3.42058 1.71017 3.05209 1.92513 2.72829 2.19805L1.26588 1.70386L0.257324 3.44866L1.40708 4.46731C1.37147 4.67735 1.35124 4.88971 1.34657 5.1027C1.35124 5.31568 1.37147 5.52805 1.40708 5.73809L0.257324 6.75673L1.26588 8.50154L2.72829 8.00734C3.05209 8.28026 3.42058 8.49522 3.81753 8.64274L4.1201 10.1455H6.13722L6.43979 8.64274C6.83674 8.49522 7.20523 8.28026 7.52903 8.00734L8.99144 8.50154L10 6.75673L8.85024 5.73809C8.88585 5.52805 8.90608 5.31568 8.91075 5.1027ZM5.12866 7.11981C4.72971 7.11981 4.33972 7.00151 4.00801 6.77987C3.6763 6.55822 3.41776 6.24319 3.26509 5.87461C3.11242 5.50603 3.07247 5.10046 3.1503 4.70918C3.22813 4.31789 3.42024 3.95848 3.70234 3.67638C3.98444 3.39428 4.34386 3.20217 4.73514 3.12434C5.12642 3.04651 5.532 3.08645 5.90058 3.23912C6.26916 3.39179 6.58419 3.65033 6.80583 3.98205C7.02747 4.31376 7.14578 4.70375 7.14578 5.1027C7.14418 5.63718 6.93115 6.14931 6.55321 6.52725C6.17528 6.90519 5.66314 7.11822 5.12866 7.11981Z" fill="#6B7280"/>
</svg>
