<svg width="20" height="10" viewBox="0 0 20 10" fill="none" xmlns="http://www.w3.org/2000/svg">
<path d="M0.909091 8.33333H19.0909V10H0.909091V8.33333ZM1.95455 4.95833L2.72727 3.725L3.5 4.95833L4.68182 4.33333L3.90909 3.1H5.45455V1.85H3.90909L4.68182 0.625L3.5 0L2.72727 1.225L1.95455 0L0.772727 0.625L1.54545 1.85H0V3.1H1.54545L0.772727 4.33333L1.95455 4.95833ZM8.04545 4.33333L9.22727 4.95833L10 3.725L10.7727 4.95833L11.9545 4.33333L11.1818 3.1H12.7273V1.85H11.1818L11.9545 0.625L10.7727 0L10 1.225L9.22727 0L8.04545 0.625L8.81818 1.85H7.27273V3.1H8.81818L8.04545 4.33333ZM20 1.85H18.4545L19.2273 0.625L18.0455 0L17.2727 1.225L16.5 0L15.3182 0.625L16.0909 1.85H14.5455V3.1H16.0909L15.3182 4.33333L16.5 4.95833L17.2727 3.725L18.0455 4.95833L19.2273 4.33333L18.4545 3.1H20V1.85Z" fill="#6B7280"/>
</svg>
